<svg width="240" height="40" viewBox="0 0 240 40" fill="none" xmlns="http://www.w3.org/2000/svg">
<g clip-path="url(#clip0_193_1094)">
<path d="M27.2021 7.61133L239.585 1.92957L234.123 30.0857L27.9509 35.6013L27.2021 7.61133Z" fill="#FFEC87"/>
<path d="M55.7874 14.8814L58.0095 14.8196L58.3828 28.1144L55.8378 28.1851L55.5541 18.0811L52.8789 20.2842L52.7962 17.3404L55.7874 14.8814ZM64.9773 14.3979C68.0921 14.3114 70.2726 16.1515 70.3499 18.9054C70.3979 20.6148 69.874 22.264 67.9486 24.7694L65.5279 27.9158L62.6221 27.9966L65.8744 24.0097C66.1872 23.6399 66.7584 22.9968 67.195 22.3004C66.4334 22.9298 65.4923 23.26 64.5616 23.2859C62.3205 23.3482 59.9596 21.8552 59.8818 19.0823C59.8061 16.3853 61.8815 14.484 64.9773 14.3979ZM62.4832 18.991C62.5216 20.3584 63.6309 21.278 65.2073 21.2342C66.7837 21.1904 67.8396 20.2107 67.8012 18.8432C67.7628 17.4757 66.6536 16.5562 65.0772 16.6C63.5008 16.6438 62.4449 17.6235 62.4832 18.991ZM81.1359 14.177C84.2507 14.0905 85.9712 15.7913 86.0394 18.2224C86.1077 20.6534 84.4854 22.4472 81.3706 22.5337L78.8066 22.605L78.9452 27.543L76.3622 27.6148L75.9889 14.32L81.1359 14.177ZM81.4797 20.3258C82.6572 20.2931 83.414 19.4928 83.3804 18.2963C83.3468 17.0997 82.5463 16.3427 81.3687 16.3754L78.6338 16.4514L78.7447 20.4018L81.4797 20.3258ZM94.2738 27.3452C90.1714 27.4592 87.1275 24.6546 87.0155 20.6662C86.9035 16.6778 89.7853 13.7086 93.8877 13.5946C97.9901 13.4806 101.034 16.2851 101.146 20.2736C101.258 24.262 98.3762 27.2312 94.2738 27.3452ZM94.2066 24.9521C96.8086 24.8798 98.5243 23.0264 98.4491 20.3485C98.3739 17.6706 96.5569 15.9153 93.9549 15.9877C91.3529 16.06 89.6373 17.9133 89.7125 20.5913C89.7876 23.2692 91.6046 25.0244 94.2066 24.9521ZM115.368 26.5309L111.683 26.6333L105.548 20.6834L105.72 26.799L103.137 26.8708L102.763 13.5761L105.346 13.5043L105.508 19.259L111.082 13.3449L114.444 13.2515L108.315 19.7322L115.368 26.5309ZM116.406 26.5021L116.032 13.2073L118.615 13.1356L118.989 26.4303L116.406 26.5021ZM129.495 19.0487C130.917 19.5984 131.783 20.6577 131.828 22.2531C131.89 24.4752 130.226 26.1181 126.978 26.2083L121.546 26.3593L121.173 13.0645L126.301 12.922C129.397 12.836 131.072 14.272 131.129 16.3232C131.158 17.3298 130.694 18.4261 129.495 19.0487ZM126.554 15.1579L123.724 15.2365L123.812 18.3703L126.642 18.2916C127.762 18.2605 128.485 17.5942 128.457 16.6065C128.432 15.6949 127.674 15.1267 126.554 15.1579ZM127.2 23.9403C128.396 23.9071 129.174 23.1632 129.143 22.0616C129.114 21.055 128.278 20.394 126.816 20.4346L123.872 20.5164L123.971 24.03L127.2 23.9403ZM149.035 12.2903L149.408 25.5851L146.825 25.6568L146.519 14.7551L140.1 14.9335L140.406 25.8352L137.823 25.907L137.45 12.6122L149.035 12.2903ZM158.275 25.5668C154.173 25.6808 151.129 22.8762 151.017 18.8878C150.905 14.8994 153.787 11.9302 157.889 11.8162C161.992 11.7022 165.036 14.5067 165.148 18.4951C165.26 22.4836 162.378 25.4528 158.275 25.5668ZM158.208 23.1737C160.81 23.1014 162.526 21.248 162.451 18.5701C162.375 15.8921 160.558 14.1369 157.957 14.2092C155.355 14.2815 153.639 16.1349 153.714 18.8129C153.789 21.4908 155.606 23.246 158.208 23.1737ZM171.912 11.6546C175.027 11.5681 176.747 13.2689 176.815 15.7C176.884 18.131 175.261 19.9248 172.147 20.0113L169.583 20.0826L169.721 25.0206L167.138 25.0924L166.765 11.7976L171.912 11.6546ZM172.256 17.8034C173.433 17.7707 174.19 16.9704 174.157 15.7739C174.123 14.5773 173.322 13.8203 172.145 13.853L169.41 13.929L169.521 17.8794L172.256 17.8034ZM187.319 11.2265L190.206 11.1463L183.685 24.6326L180.817 24.7123L182.525 21.2435L176.759 11.5199L179.703 11.4381L183.896 18.6204L187.319 11.2265ZM199.362 10.8919L201.945 10.8201L202.318 24.1148L199.735 24.1866L199.562 17.9951C198.528 19.1072 197.197 19.7524 195.811 19.7909C193.19 19.8638 191.315 18.0722 191.239 15.3942L191.119 11.1019L193.702 11.0491L193.821 15.2845C193.857 16.557 194.791 17.3293 196.254 17.2887C197.336 17.2586 198.505 16.903 199.514 16.3047L199.362 10.8919Z" fill="#221F1F"/>
<path d="M39.9061 20.0882C39.8622 31.1355 30.8745 40.0439 19.8652 39.9998C8.85594 39.9557 -0.0437872 30.9591 0.000162077 19.9118C0.0441114 8.86448 9.03174 -0.043938 20.041 0.000163037C31.0723 0.0442641 39.9501 9.04088 39.9061 20.0882Z" fill="#221F1F"/>
<path d="M27.1393 29.9008C25.0297 33.6935 22.4147 36.8026 19.4921 36.7365C17.6682 36.6924 15.9322 36.0088 14.35 34.9283C14.8555 34.0022 18.0418 29.3716 27.1393 29.9008ZM39.3792 20.0883C39.3352 30.8269 30.5893 39.5148 19.8657 39.4487C9.14204 39.4046 0.527985 30.6505 0.527985 19.9119C0.527985 12.9439 3.99998 7.93847 7.29617 5.2483C11.3395 1.96277 14.0863 4.47653 15.0532 6.39493C14.9433 5.57906 14.6137 3.2417 13.7128 1.56586C15.6905 0.882294 17.822 0.507435 20.0415 0.529485C30.7651 0.595637 39.4231 9.32765 39.3792 20.0883ZM18.9208 8.88664C21.7335 6.96824 26.5899 5.90982 29.1609 9.92302C27.6007 0.749991 20.8545 6.02007 18.9208 8.88664ZM15.0093 17.5525C15.6026 16.891 16.2838 16.2295 17.0749 15.6341C20.5908 12.9219 24.4364 12.2383 25.6889 14.1347C26.1724 14.8623 26.1944 15.8767 25.8208 16.9792C27.0734 14.9064 27.4689 12.988 26.6998 11.9296C25.4033 10.1656 21.3819 11.3784 17.7122 14.6418C16.6354 15.5459 15.7344 16.5602 15.0093 17.5525ZM8.87835 19.1842C10.6583 19.515 12.5921 17.2438 13.1854 14.0685C13.7787 10.8932 12.8338 8.07077 11.0538 7.71796C9.27389 7.3872 7.34012 9.65841 6.74681 12.8337C6.15349 15.9869 7.0984 18.8314 8.87835 19.1842ZM33.6218 15.3474C16.5914 26.7917 4.83501 20.9924 4.83501 20.9924C4.65922 24.9615 11.4494 37.1554 19.536 37.3098C27.6447 37.4641 33.6218 15.3474 33.6218 15.3474ZM7.23025 12.8998C7.77962 9.98917 9.44969 7.87232 10.9659 8.18102C12.4822 8.46768 13.2733 11.0696 12.7459 13.9803C12.1965 16.891 10.5264 19.0078 9.0102 18.6991C7.47197 18.4125 6.68088 15.8105 7.23025 12.8998ZM10.4605 15.3695C11.1417 15.5239 11.8889 14.6859 12.1526 13.5173C12.4163 12.3486 12.0647 11.2681 11.3835 11.1358C10.922 11.0255 10.4385 11.3784 10.087 11.9737C10.3946 12.1281 10.5484 12.525 10.3946 12.8557C10.2627 13.1644 9.95511 13.3188 9.64746 13.2526C9.51561 14.289 9.84523 15.2151 10.4605 15.3695Z" fill="#05BC52"/>
</g>
<defs>
<clipPath id="clip0_193_1094">
<rect width="240" height="40" fill="white"/>
</clipPath>
</defs>
</svg>
